<svg xmlns="http://www.w3.org/2000/svg" width="96" height="24" fill="none"><g clip-path="url(#a)"><path fill="#000" d="m13.14 6.342-4.015 1.46-2.19 3.65-2.555-3.65-4.015-1.46 4.745 7.3L0 21.674h2.92l3.65-5.84 4.016 5.84h2.92l-5.11-8.03 4.745-7.3Zm4.016 7.666c.365-1.46 1.825-2.92 3.65-2.92s3.285 1.46 3.65 2.92h-7.3Zm3.65-5.11c-3.65 0-6.57 2.92-6.57 6.57 0 4.015 2.92 6.57 6.57 6.57 2.555 0 5.11-1.46 6.205-4.015h-2.92c-.365 1.095-1.825 1.825-3.285 1.825-2.19 0-3.65-1.46-4.015-3.65h10.22c.365-4.016-2.19-7.3-6.205-7.3Zm20.076.364h-3.285l-5.475 5.476V9.262h-2.555v12.411h2.555v-5.84l6.205 5.84h3.285l-6.57-6.57 5.84-5.84Zm7.666 2.19c1.46 0 2.92.73 3.285 2.19h2.555c-.365-2.92-2.92-4.745-5.84-4.745-4.016 0-6.57 2.92-6.57 6.57 0 3.65 2.554 6.571 6.204 6.571 2.92 0 5.84-1.825 6.206-4.745h-2.555c-.365 1.46-1.825 2.19-3.65 2.19-2.19 0-3.65-1.46-3.65-4.015 0-2.19 1.46-4.015 4.014-4.015Zm9.855 5.11c-.365 2.556-.73 2.92-2.19 2.92h-.73v2.556h1.46c1.825 0 3.285-1.46 4.015-5.11l.73-5.11h4.38v9.855h2.556V9.263h-9.126l-1.095 7.3Zm15.33-2.554c.73-1.46 1.826-2.92 4.016-2.92 1.825 0 2.92 1.46 3.285 2.92h-7.3Zm4.016-5.11c-4.015 0-6.57 2.92-6.57 6.57 0 4.015 2.555 6.57 6.57 6.57 2.555 0 5.11-1.46 5.84-4.015h-2.555c-.73 1.095-1.825 1.825-3.285 1.825-2.19 0-3.65-1.46-4.015-3.65h10.22c.365-4.016-2.19-7.3-6.205-7.3Zm14.236.364h-6.57v2.556h4.015v9.855h2.555v-9.855H96V9.262h-4.015Z"/><path fill="#136EF6" d="M13.14 4.517 6.937 1.962.366 4.517l6.57 2.19 6.205-2.19Z"/></g><defs><clipPath id="a"><path fill="#fff" d="M0 0h96v24H0z"/></clipPath></defs></svg>